<svg xmlns="http://www.w3.org/2000/svg" viewBox="56.00 36.00 144.00 184.00" width="1024" height="1024" role="img" aria-label="Darq mark">
  <defs><linearGradient id="ambergrad" x1="0" y1="0" x2="0.55" y2="1"><stop offset="0" stop-color="#DFAC53"/><stop offset="1" stop-color="#9E6B1F"/></linearGradient></defs>
  <path d="M56.00 220.00 L56.00 108.00 C56.00 68.23 88.23 36.00 128.00 36.00 C167.76 36.00 200.00 68.23 200.00 108.00 L200.00 220.00 Z M118.00 146.00 L123.00 192.00 L133.00 192.00 L138.00 146.00 C147.02 142.24 153.17 133.75 153.92 124.01 C154.68 114.27 149.91 104.93 141.58 99.83 C133.24 94.72 122.76 94.72 114.42 99.83 C106.09 104.93 101.32 114.27 102.08 124.01 C102.83 133.75 108.98 142.24 118.00 146.00 Z" fill="url(#ambergrad)"/>
</svg>
